<svg width="17" height="16" viewBox="0 0 17 16" fill="none" xmlns="http://www.w3.org/2000/svg">
<path d="M12.5 1.33334V2.66667M4.5 1.33334V2.66667" stroke="#555555" stroke-linecap="round" stroke-linejoin="round"/>
<path d="M8.49693 8.66667H8.50291M8.49693 11.3333H8.50291M11.1606 8.66667H11.1666M5.83325 8.66667H5.83923M5.83325 11.3333H5.83923" stroke="#555555" stroke-width="1.5" stroke-linecap="round" stroke-linejoin="round"/>
<path d="M2.83325 5.33334H14.1666" stroke="#555555" stroke-linecap="round" stroke-linejoin="round"/>
<path d="M2.16663 8.16216C2.16663 5.25729 2.16663 3.80486 3.00137 2.90243C3.83612 2 5.17962 2 7.86663 2H9.13329C11.8203 2 13.1638 2 13.9985 2.90243C14.8333 3.80486 14.8333 5.25729 14.8333 8.16216V8.5045C14.8333 11.4094 14.8333 12.8618 13.9985 13.7642C13.1638 14.6667 11.8203 14.6667 9.13329 14.6667H7.86663C5.17962 14.6667 3.83612 14.6667 3.00137 13.7642C2.16663 12.8618 2.16663 11.4094 2.16663 8.5045V8.16216Z" stroke="#555555" stroke-linecap="round" stroke-linejoin="round"/>
<path d="M2.5 5.33334H14.5" stroke="#555555" stroke-linecap="round" stroke-linejoin="round"/>
</svg>
