<svg width="20" height="20" viewBox="0 0 20 20" fill="none" xmlns="http://www.w3.org/2000/svg">
<path d="M2.5 5.83331H5" stroke="#404040" stroke-width="1.5" stroke-linecap="round" stroke-linejoin="round"/>
<path d="M2.5 14.1666H7.5" stroke="#404040" stroke-width="1.5" stroke-linecap="round" stroke-linejoin="round"/>
<path d="M15 14.1666L17.5 14.1666" stroke="#404040" stroke-width="1.5" stroke-linecap="round" stroke-linejoin="round"/>
<path d="M12.5 5.83331L17.5 5.83331" stroke="#404040" stroke-width="1.5" stroke-linecap="round" stroke-linejoin="round"/>
<path d="M5 5.83331C5 5.05674 5 4.66846 5.12687 4.36217C5.29602 3.95379 5.62048 3.62934 6.02886 3.46018C6.33515 3.33331 6.72343 3.33331 7.5 3.33331C8.27657 3.33331 8.66485 3.33331 8.97114 3.46018C9.37952 3.62934 9.70398 3.95379 9.87313 4.36217C10 4.66846 10 5.05674 10 5.83331C10 6.60988 10 6.99817 9.87313 7.30445C9.70398 7.71283 9.37952 8.03729 8.97114 8.20645C8.66485 8.33331 8.27657 8.33331 7.5 8.33331C6.72343 8.33331 6.33515 8.33331 6.02886 8.20645C5.62048 8.03729 5.29602 7.71283 5.12687 7.30445C5 6.99817 5 6.60988 5 5.83331Z" stroke="#404040" stroke-width="1.5"/>
<path d="M10 14.1666C10 13.3901 10 13.0018 10.1269 12.6955C10.296 12.2871 10.6205 11.9627 11.0289 11.7935C11.3351 11.6666 11.7234 11.6666 12.5 11.6666C13.2766 11.6666 13.6649 11.6666 13.9711 11.7935C14.3795 11.9627 14.704 12.2871 14.8731 12.6955C15 13.0018 15 13.3901 15 14.1666C15 14.9432 15 15.3315 14.8731 15.6378C14.704 16.0461 14.3795 16.3706 13.9711 16.5398C13.6649 16.6666 13.2766 16.6666 12.5 16.6666C11.7234 16.6666 11.3351 16.6666 11.0289 16.5398C10.6205 16.3706 10.296 16.0461 10.1269 15.6378C10 15.3315 10 14.9432 10 14.1666Z" stroke="#404040" stroke-width="1.5"/>
</svg>
