<svg width="20" height="20" viewBox="0 0 20 20" fill="none" xmlns="http://www.w3.org/2000/svg">
<path d="M3.33337 15.5382V6.71189C3.33337 4.33355 3.33337 3.14438 4.06561 2.40553C4.79784 1.66667 5.97635 1.66667 8.33337 1.66667H11.6667C14.0237 1.66667 15.2022 1.66667 15.9345 2.40553C16.6667 3.14438 16.6667 4.33355 16.6667 6.71189V15.5382C16.6667 16.7979 16.6667 17.4278 16.2817 17.6757C15.6526 18.0809 14.6801 17.2312 14.191 16.9227C13.7868 16.6679 13.5848 16.5404 13.3605 16.5331C13.1181 16.5251 12.9125 16.6473 12.4758 16.9227L10.8834 17.927C10.4538 18.1979 10.239 18.3333 10 18.3333C9.76105 18.3333 9.54626 18.1979 9.11671 17.927L7.52431 16.9227C7.12016 16.6679 6.91809 16.5404 6.69382 16.5331C6.45147 16.5251 6.24581 16.6473 5.8091 16.9227C5.32 17.2312 4.34744 18.0809 3.71834 17.6757C3.33337 17.4278 3.33337 16.7979 3.33337 15.5382Z" stroke="#FB143C" stroke-width="1.5" stroke-linecap="round" stroke-linejoin="round"/>
<path d="M9.16675 9.16667H6.66675" stroke="#FB143C" stroke-width="1.5" stroke-linecap="round" stroke-linejoin="round"/>
<path d="M11.6667 5.83334L6.66675 5.83334" stroke="#FB143C" stroke-width="1.5" stroke-linecap="round" stroke-linejoin="round"/>
</svg>
