<svg width="18" height="18" viewBox="0 0 18 18" fill="none" xmlns="http://www.w3.org/2000/svg">
<path d="M5.76878 14.712C6.21205 14.712 6.43369 14.712 6.6356 14.787C6.66365 14.7974 6.69129 14.8088 6.71848 14.8213C6.91423 14.9111 7.07095 15.0678 7.38439 15.3813C8.10581 16.1027 8.46653 16.4634 8.91036 16.4966C8.97004 16.5011 9.02997 16.5011 9.08964 16.4966C9.53348 16.4634 9.89419 16.1027 10.6156 15.3813C10.9291 15.0678 11.0858 14.9111 11.2815 14.8213C11.3087 14.8088 11.3364 14.7974 11.3644 14.787C11.5663 14.712 11.7879 14.712 12.2312 14.712H12.313C13.4439 14.712 14.0094 14.712 14.3607 14.3607C14.712 14.0094 14.712 13.4439 14.712 12.313V12.2312C14.712 11.7879 14.712 11.5663 14.787 11.3644C14.7974 11.3364 14.8088 11.3087 14.8213 11.2815C14.9111 11.0858 15.0678 10.9291 15.3813 10.6156C16.1027 9.89419 16.4634 9.53348 16.4966 9.08964C16.5011 9.02997 16.5011 8.97004 16.4966 8.91036C16.4634 8.46653 16.1027 8.10581 15.3813 7.38439C15.0678 7.07095 14.9111 6.91423 14.8213 6.71848C14.8088 6.69129 14.7974 6.66365 14.787 6.6356C14.712 6.43369 14.712 6.21205 14.712 5.76878V5.68702C14.712 4.55609 14.712 3.99063 14.3607 3.63929C14.0094 3.28796 13.4439 3.28796 12.313 3.28796H12.2312C11.7879 3.28796 11.5663 3.28796 11.3644 3.21304C11.3364 3.20263 11.3087 3.19118 11.2815 3.17871C11.0858 3.08891 10.9291 2.93219 10.6156 2.61875C9.89419 1.89733 9.53348 1.53662 9.08964 1.50336C9.02997 1.49888 8.97004 1.49888 8.91036 1.50336C8.46653 1.53662 8.10581 1.89733 7.38439 2.61875C7.07095 2.93219 6.91423 3.08891 6.71848 3.17871C6.69129 3.19118 6.66365 3.20263 6.6356 3.21304C6.43369 3.28796 6.21205 3.28796 5.76878 3.28796H5.68702C4.55609 3.28796 3.99063 3.28796 3.63929 3.63929C3.28796 3.99063 3.28796 4.55609 3.28796 5.68702V5.76878C3.28796 6.21205 3.28796 6.43369 3.21304 6.6356C3.20263 6.66365 3.19118 6.69129 3.17871 6.71848C3.08891 6.91423 2.93219 7.07095 2.61875 7.38439C1.89733 8.10581 1.53662 8.46653 1.50336 8.91036C1.49888 8.97004 1.49888 9.02997 1.50336 9.08964C1.53662 9.53348 1.89733 9.89419 2.61875 10.6156C2.93219 10.9291 3.08891 11.0858 3.17871 11.2815C3.19118 11.3087 3.20263 11.3364 3.21304 11.3644C3.28796 11.5663 3.28796 11.7879 3.28796 12.2312V12.313C3.28796 13.4439 3.28796 14.0094 3.63929 14.3607C3.99063 14.712 4.55609 14.712 5.68702 14.712H5.76878Z" stroke="white"/>
<path d="M11.25 6.75L6.75 11.25" stroke="white" stroke-linecap="round" stroke-linejoin="round"/>
<path d="M11.25 11.25H11.2419M6.75807 6.75H6.75" stroke="white" stroke-width="1.5" stroke-linecap="round" stroke-linejoin="round"/>
</svg>
