<svg width="18" height="18" viewBox="0 0 18 18" fill="none" xmlns="http://www.w3.org/2000/svg">
<path d="M1.90899 12.5757C1.67467 12.8101 1.67467 13.1899 1.90899 13.4243C2.1433 13.6586 2.5232 13.6586 2.75752 13.4243L1.90899 12.5757ZM5.4894 9.84386L5.91366 10.2681L5.4894 9.84386ZM7.26513 9.7455L6.89032 10.214H6.89032L7.26513 9.7455ZM8.67811 10.8759L8.30329 11.3444L8.30329 11.3444L8.67811 10.8759ZM10.5076 10.7205L10.0591 10.3219L10.5076 10.7205ZM15.4484 6.06529C15.6685 5.81762 15.6462 5.43837 15.3985 5.21822C15.1509 4.99807 14.7716 5.02038 14.5515 5.26805L15.4484 6.06529ZM9.64521 11.415L9.69598 12.0128H9.69598L9.64521 11.415ZM6.34586 9.22769L6.37904 9.82677L6.37904 9.82677L6.34586 9.22769ZM12.9999 4.4C12.6685 4.4 12.3999 4.66863 12.3999 5C12.3999 5.33137 12.6685 5.6 12.9999 5.6V4.4ZM15.0666 7.66667C15.0666 7.99804 15.3352 8.26667 15.6666 8.26667C15.998 8.26667 16.2666 7.99804 16.2666 7.66667H15.0666ZM15.4713 5.19526L15.8956 4.771V4.771L15.4713 5.19526ZM2.75752 13.4243L5.91366 10.2681L5.06513 9.41959L1.90899 12.5757L2.75752 13.4243ZM6.89032 10.214L8.30329 11.3444L9.05293 10.4074L7.63995 9.27698L6.89032 10.214ZM10.956 11.1192L15.4484 6.06529L14.5515 5.26805L10.0591 10.3219L10.956 11.1192ZM8.30329 11.3444C8.52442 11.5213 8.73551 11.6917 8.92728 11.8077C9.13388 11.9326 9.38767 12.039 9.69598 12.0128L9.59445 10.8171C9.63765 10.8135 9.64189 10.8375 9.54821 10.7808C9.43971 10.7152 9.2998 10.6049 9.05293 10.4074L8.30329 11.3444ZM10.0591 10.3219C9.84909 10.5582 9.7298 10.6906 9.63391 10.7736C9.55112 10.8452 9.55125 10.8208 9.59445 10.8171L9.69598 12.0128C10.0043 11.9866 10.2365 11.839 10.4191 11.681C10.5886 11.5344 10.7679 11.3308 10.956 11.1192L10.0591 10.3219ZM5.91366 10.2681C6.12562 10.0562 6.24496 9.93845 6.33962 9.86531C6.42076 9.80261 6.41967 9.82452 6.37904 9.82677L6.31268 8.6286C6.01767 8.64494 5.78904 8.77424 5.6059 8.91576C5.43626 9.04683 5.25456 9.23017 5.06513 9.41959L5.91366 10.2681ZM7.63995 9.27698C7.43077 9.10964 7.22993 8.94749 7.04686 8.83595C6.8492 8.71552 6.6077 8.61226 6.31268 8.6286L6.37904 9.82677C6.33841 9.82902 6.33491 9.80737 6.42249 9.86072C6.52464 9.92296 6.65624 10.0268 6.89032 10.214L7.63995 9.27698ZM12.9999 5.6H14.3333V4.4H12.9999V5.6ZM15.0666 6.33333V7.66667H16.2666V6.33333H15.0666ZM14.3333 5.6C14.6645 5.6 14.8525 5.60127 14.9848 5.61906C15.0998 5.63452 15.0795 5.65196 15.0471 5.61953L15.8956 4.771C15.6679 4.54331 15.3928 4.46311 15.1447 4.42976C14.9139 4.39873 14.6306 4.4 14.3333 4.4V5.6ZM16.2666 6.33333C16.2666 6.03603 16.2679 5.75269 16.2368 5.52187C16.2035 5.2738 16.1233 4.99869 15.8956 4.771L15.0471 5.61953C15.0146 5.5871 15.0321 5.56676 15.0475 5.68177C15.0653 5.81404 15.0666 6.0021 15.0666 6.33333H16.2666Z" fill="white"/>
</svg>
