<svg width="56" height="56" viewBox="0 0 56 56" fill="none" xmlns="http://www.w3.org/2000/svg">
<circle cx="28" cy="28" r="28" fill="#2C3454"/>
<path d="M33.8059 30.8372C33.9223 30.9064 34.0659 30.9875 34.2286 31.0793C34.9414 31.4814 36.0189 32.0893 36.7571 32.8118C37.2188 33.2637 37.6574 33.8592 37.7372 34.5888C37.822 35.3646 37.4835 36.0927 36.8045 36.7396C35.633 37.8556 34.2272 38.75 32.4089 38.75H23.5907C21.7724 38.75 20.3666 37.8556 19.1951 36.7396C18.5161 36.0927 18.1777 35.3646 18.2625 34.5888C18.3422 33.8592 18.7809 33.2637 19.2425 32.8118C19.9807 32.0893 21.0582 31.4814 21.771 31.0793C21.9337 30.9875 22.0774 30.9064 22.1937 30.8372C25.7477 28.7209 30.2519 28.7209 33.8059 30.8372Z" fill="white"/>
<path d="M22.7498 22.5C22.7498 19.6005 25.1003 17.25 27.9998 17.25C30.8993 17.25 33.2498 19.6005 33.2498 22.5C33.2498 25.3995 30.8993 27.75 27.9998 27.75C25.1003 27.75 22.7498 25.3995 22.7498 22.5Z" fill="white"/>
</svg>
