<svg width="229" height="263" viewBox="0 0 229 263" fill="none" xmlns="http://www.w3.org/2000/svg">
<path d="M26.3484 262.345C21.9714 262.337 17.6719 261.19 13.8728 259.016C5.31816 254.168 0 244.758 0 234.542V27.804C0 17.5598 5.31816 8.17811 13.8728 3.33046C17.7624 1.09509 22.181 -0.0544508 26.6668 0.0019821C31.1526 0.058415 35.5409 1.31875 39.3729 3.65126L216.063 109.416C219.745 111.725 222.781 114.931 224.885 118.734C226.989 122.537 228.093 126.812 228.093 131.159C228.093 135.505 226.989 139.781 224.885 143.584C222.781 147.387 219.745 150.593 216.063 152.902L39.3444 258.695C35.4228 261.066 30.931 262.327 26.3484 262.345Z" fill="#F2F2F2"/>
</svg>
