<svg width="25" height="24" viewBox="0 0 25 24" fill="none" xmlns="http://www.w3.org/2000/svg">
<path fill-rule="evenodd" clip-rule="evenodd" d="M11.0656 1.80358C11.4816 1.48611 11.9388 1.25 12.5 1.25C13.0612 1.25 13.5184 1.48611 13.9344 1.80358C14.3241 2.10089 14.7539 2.53075 15.2568 3.03368L15.2922 3.06904C15.8067 3.58361 16.2553 3.78626 16.9479 3.78626C17.0345 3.78626 17.1442 3.78315 17.2682 3.77964C17.583 3.77072 17.99 3.75919 18.3456 3.78921C18.8672 3.83325 19.5205 3.97339 20.0187 4.46747C20.5207 4.96533 20.6643 5.62129 20.7097 6.14615C20.7407 6.50496 20.7292 6.91507 20.7203 7.2321L20.7203 7.23236C20.7168 7.35593 20.7137 7.46534 20.7137 7.55206C20.7137 8.00288 20.7638 8.25468 20.8507 8.45354C20.9399 8.65779 21.0973 8.87416 21.431 9.20784L21.4664 9.24322C21.9693 9.74607 22.3991 10.1759 22.6964 10.5655C23.0139 10.9816 23.25 11.4388 23.25 12C23.25 12.5611 23.0139 13.0183 22.6964 13.4344C22.3991 13.8242 21.9691 14.2541 21.4661 14.7571L21.4309 14.7922C21.0973 15.1258 20.9399 15.3422 20.8507 15.5464C20.7638 15.7453 20.7137 15.9971 20.7137 16.4479C20.7137 16.5346 20.7168 16.644 20.7203 16.7676L20.7203 16.7679C20.7292 17.0849 20.7407 17.495 20.7097 17.8539C20.6643 18.3787 20.5207 19.0347 20.0186 19.5326C19.5204 20.0266 18.8671 20.1667 18.3456 20.2107C17.99 20.2408 17.583 20.2292 17.2682 20.2203C17.1442 20.2168 17.0345 20.2137 16.9479 20.2137C16.5067 20.2137 16.2587 20.2581 16.0635 20.3386C15.8685 20.4191 15.6599 20.5632 15.3458 20.8773C15.2787 20.9445 15.1902 21.0392 15.0882 21.1486C14.8583 21.3951 14.5593 21.7155 14.2801 21.9596C13.8563 22.33 13.2485 22.75 12.5 22.75C11.7516 22.75 11.1437 22.33 10.72 21.9596C10.4407 21.7155 10.1418 21.3951 9.9118 21.1486L9.91179 21.1486L9.91176 21.1486L9.91153 21.1483C9.80963 21.0391 9.72129 20.9444 9.65424 20.8774C9.34006 20.5632 9.13147 20.4191 8.93645 20.3386C8.74126 20.2581 8.49328 20.2137 8.05206 20.2137C7.9655 20.2137 7.85581 20.2168 7.73179 20.2203C7.41703 20.2292 7.00997 20.2408 6.65443 20.2107C6.13287 20.1667 5.47961 20.0266 4.98139 19.5326C4.47933 19.0347 4.33569 18.3787 4.29029 17.8539C4.25926 17.495 4.2708 17.0849 4.27972 16.7679C4.2832 16.6442 4.28628 16.5347 4.28628 16.4479C4.28628 15.9971 4.23619 15.7453 4.14932 15.5464C4.06011 15.3422 3.90272 15.1258 3.56906 14.7922L3.53395 14.7571C3.03091 14.2541 2.60095 13.8242 2.30358 13.4344C1.98613 13.0183 1.75001 12.5611 1.75 12C1.75001 11.4388 1.98612 10.9816 2.30358 10.5655C2.60089 10.1759 3.03075 9.74606 3.53367 9.24319L3.56902 9.20784C4.08371 8.69315 4.28628 8.24448 4.28628 7.55206C4.28628 7.46549 4.28317 7.35581 4.27966 7.23181L4.27966 7.23178C4.27075 6.91701 4.25922 6.50995 4.28923 6.15439C4.33327 5.63282 4.4734 4.97955 4.96745 4.48134C5.46532 3.97929 6.12128 3.83566 6.64615 3.79027C7.00497 3.75924 7.41509 3.77078 7.73212 3.7797C7.85579 3.78318 7.9653 3.78626 8.05208 3.78626C8.74449 3.78626 9.19316 3.5837 9.70782 3.06904L9.74319 3.03367C10.2461 2.53075 10.6759 2.10089 11.0656 1.80358ZM8.79289 15.7071C8.40237 15.3166 8.40237 14.6834 8.79289 14.2929L14.7929 8.29289C15.1834 7.90237 15.8166 7.90237 16.2071 8.29289C16.5976 8.68342 16.5976 9.31658 16.2071 9.70711L10.2071 15.7071C9.81658 16.0976 9.18342 16.0976 8.79289 15.7071ZM9.51076 8H9.5C8.94772 8 8.5 8.44772 8.5 9C8.5 9.55229 8.94772 10 9.5 10H9.51076C10.063 10 10.5108 9.55229 10.5108 9C10.5108 8.44772 10.063 8 9.51076 8ZM15.4892 14C14.937 14 14.4892 14.4477 14.4892 15C14.4892 15.5523 14.937 16 15.4892 16H15.5C16.0523 16 16.5 15.5523 16.5 15C16.5 14.4477 16.0523 14 15.5 14H15.4892Z" fill="#FB143C"/>
</svg>
