<svg width="25" height="24" viewBox="0 0 25 24" fill="none" xmlns="http://www.w3.org/2000/svg">
<path d="M4.6449 3.35515C7.62587 1.52662 10.3001 2.25537 11.9156 3.46861C12.1814 3.6682 12.3638 3.8048 12.4996 3.89704C12.6354 3.8048 12.8178 3.6682 13.0836 3.46861C14.6991 2.25537 17.3734 1.52662 20.3543 3.35515C22.4156 4.61952 23.5754 7.2606 23.1684 10.2951C22.7595 13.3443 20.7859 16.7929 16.6063 19.8865C15.1549 20.9614 14.0897 21.7503 12.4996 21.7503C10.9095 21.7503 9.84433 20.9614 8.39294 19.8865C4.21334 16.7929 2.23976 13.3443 1.83081 10.2951C1.42382 7.2606 2.58365 4.61952 4.6449 3.35515Z" fill="#FB143C"/>
</svg>
