<svg width="25" height="24" viewBox="0 0 25 24" fill="none" xmlns="http://www.w3.org/2000/svg">
<path fill-rule="evenodd" clip-rule="evenodd" d="M7.06008 4.8893C4.51778 6.77703 3.24662 7.7209 2.74737 9.11512C2.70732 9.22696 2.6713 9.34027 2.63937 9.45481C2.24142 10.8827 2.72695 12.4099 3.69803 15.4643C4.6691 18.5187 5.15464 20.0459 6.2978 20.962C6.3895 21.0355 6.48381 21.1055 6.58054 21.172C7.78631 22 9.35754 22 12.5 22C15.6425 22 17.2137 22 18.4195 21.172C18.5162 21.1055 18.6105 21.0355 18.7022 20.962C19.8454 20.0459 20.3309 18.5187 21.302 15.4643C22.273 12.4099 22.7586 10.8827 22.3606 9.45481C22.3287 9.34027 22.2927 9.22696 22.2526 9.11512C21.7534 7.7209 20.4822 6.77704 17.9399 4.88931C15.3976 3.00158 14.1265 2.0577 12.6747 2.00327C12.5583 1.99891 12.4417 1.99891 12.3253 2.00327C10.8735 2.0577 9.60238 3.00157 7.06008 4.8893ZM10.5934 16.6821C10.1985 16.6821 9.87839 17.0093 9.87839 17.4129C9.87839 17.8164 10.1985 18.1436 10.5934 18.1436H14.4066C14.8015 18.1436 15.1216 17.8164 15.1216 17.4129C15.1216 17.0093 14.8015 16.6821 14.4066 16.6821H10.5934Z" fill="#FB143C"/>
</svg>
