<svg width="25" height="24" viewBox="0 0 25 24" fill="none" xmlns="http://www.w3.org/2000/svg">
<path fill-rule="evenodd" clip-rule="evenodd" d="M13.5 3.15909C12.8303 3.15909 12.1847 3.44018 10.3425 4.31292L7.49428 5.6622C6.68359 6.04626 6.1757 6.28957 5.85735 6.5C6.1757 6.71043 6.68359 6.95374 7.49428 7.3378L8.56862 7.84675L16.2148 4.10386C14.7059 3.39461 14.113 3.15909 13.5 3.15909ZM18.4314 5.15325L10.7852 8.89613C12.2941 9.60539 12.887 9.84091 13.5 9.84091C14.1697 9.84091 14.8153 9.55982 16.6575 8.68708L19.5057 7.3378C20.3164 6.95374 20.8243 6.71043 21.1427 6.5C20.8243 6.28957 20.3164 6.04626 19.5057 5.6622L18.4314 5.15325ZM9.69088 2.50066C11.2555 1.7585 12.3275 1.25 13.5 1.25C14.6725 1.25 15.7445 1.7585 17.3091 2.50066C17.3742 2.53152 17.4401 2.56279 17.5069 2.59444L20.4212 3.97504C21.146 4.31831 21.785 4.62098 22.2346 4.91829C22.6847 5.21596 23.25 5.7042 23.25 6.5C23.25 7.2958 22.6847 7.78404 22.2346 8.08171C21.785 8.37902 21.146 8.68169 20.4212 9.02496L17.5069 10.4056C17.4401 10.4372 17.3742 10.4685 17.3091 10.4993C15.7445 11.2415 14.6725 11.75 13.5 11.75C12.3275 11.75 11.2555 11.2415 9.69089 10.4993C9.62582 10.4685 9.5599 10.4372 9.49309 10.4056L6.64491 9.05627C6.62279 9.04579 6.60075 9.03535 6.57878 9.02495C5.85402 8.68168 5.215 8.37902 4.76541 8.08171C4.31527 7.78404 3.75 7.2958 3.75 6.5C3.75 5.7042 4.31527 5.21596 4.76541 4.91829C5.215 4.62098 5.85402 4.31832 6.57878 3.97505C6.60075 3.96465 6.62279 3.95421 6.64491 3.94373L9.49309 2.59444C9.5599 2.56279 9.62581 2.53153 9.69088 2.50066Z" fill="#FB143C"/>
<path fill-rule="evenodd" clip-rule="evenodd" d="M1.75 13C1.75 12.4477 2.19772 12 2.75 12L5.75 12C6.30228 12 6.75 12.4477 6.75 13C6.75 13.5523 6.30228 14 5.75 14H2.75C2.19772 14 1.75 13.5523 1.75 13ZM1.75 16C1.75 15.4477 2.19772 15 2.75 15H5.75C6.30228 15 6.75 15.4477 6.75 16C6.75 16.5523 6.30228 17 5.75 17H2.75C2.19772 17 1.75 16.5523 1.75 16ZM1.75 19C1.75 18.4477 2.19772 18 2.75 18H5.75C6.30228 18 6.75 18.4477 6.75 19C6.75 19.5523 6.30228 20 5.75 20H2.75C2.19772 20 1.75 19.5523 1.75 19Z" fill="#FB143C"/>
<path d="M10.1941 21.7642C9.58112 21.5053 8.98739 21.2545 8.43014 21.0129C8.32067 20.9655 8.25 20.8575 8.25 20.7382L8.25 13.0009C8.25 11.6202 7.13071 10.5009 5.75 10.5009H4.05C3.88431 10.5009 3.75 10.3666 3.75 10.2009L3.75 6.50087C3.75 6.39206 3.77317 6.28866 3.81485 6.19534C3.86977 6.07236 4.02157 6.04519 4.14273 6.10402L7.2314 7.6036L10.1526 9.01714C12.0204 9.92097 12.7424 10.2509 13.5 10.2509C14.2576 10.2509 14.9796 9.92097 16.8474 9.01714L19.7686 7.6036L22.8573 6.10402C22.9784 6.04519 23.1302 6.07236 23.1851 6.19534C23.2268 6.28866 23.25 6.39206 23.25 6.50087L23.25 17.1622C23.25 18.2826 22.4327 19.0277 21.4267 19.6314C20.4083 20.2425 18.6989 20.9646 16.8058 21.7642C15.3868 22.3641 14.472 22.7509 13.5 22.7509C12.528 22.7509 11.6132 22.3641 10.1941 21.7642Z" fill="#FB143C"/>
</svg>
