<svg width="25" height="24" viewBox="0 0 25 24" fill="none" xmlns="http://www.w3.org/2000/svg">
<path fill-rule="evenodd" clip-rule="evenodd" d="M12.5 1.25C6.56294 1.25 1.75 6.06294 1.75 12C1.75 17.9371 6.56294 22.75 12.5 22.75C18.4371 22.75 23.25 17.9371 23.25 12C23.25 6.06294 18.4371 1.25 12.5 1.25ZM12.4916 6.25C10.6958 6.25 9.23808 7.70407 9.23808 9.5C9.23808 11.2959 10.6958 12.75 12.4916 12.75C14.2875 12.75 15.7452 11.2959 15.7452 9.5C15.7452 7.70407 14.2875 6.25 12.4916 6.25ZM17.5409 16.4802C14.8735 13.6002 10.0747 13.7487 7.46382 16.4756L7.27631 16.6631C7.13104 16.8084 7.05172 17.0069 7.05688 17.2123C7.06204 17.4177 7.15122 17.612 7.3036 17.7498C8.67769 18.9923 10.5013 19.75 12.5001 19.75C14.4989 19.75 16.3225 18.9923 17.6966 17.7498C17.849 17.612 17.9382 17.4177 17.9433 17.2123C17.9485 17.0069 17.8692 16.8084 17.7239 16.6631L17.5409 16.4802Z" fill="#FB143C"/>
</svg>
